<mxfile host="Electron" modified="2024-03-24T04:45:48.849Z" agent="Mozilla/5.0 (Macintosh; Intel Mac OS X 10_15_7) AppleWebKit/537.36 (KHTML, like Gecko) draw.io/22.1.11 Chrome/114.0.5735.289 Electron/25.9.8 Safari/537.36" etag="pi96akck8TzJ8YO2swVO" version="22.1.11" type="device">
  <diagram name="第 1 页" id="5oTv1oDq72IgEs13BQf1">
    <mxGraphModel dx="954" dy="589" grid="1" gridSize="10" guides="1" tooltips="1" connect="1" arrows="1" fold="1" page="1" pageScale="1" pageWidth="827" pageHeight="1169" math="0" shadow="0">
      <root>
        <mxCell id="0" />
        <mxCell id="1" parent="0" />
        <mxCell id="kI2SttpEml83V6R4ilh7-3" value="" style="edgeStyle=orthogonalEdgeStyle;rounded=0;orthogonalLoop=1;jettySize=auto;html=1;entryX=0;entryY=0.5;entryDx=0;entryDy=0;" parent="1" source="kI2SttpEml83V6R4ilh7-1" target="kI2SttpEml83V6R4ilh7-2" edge="1">
          <mxGeometry relative="1" as="geometry" />
        </mxCell>
        <mxCell id="kI2SttpEml83V6R4ilh7-14" style="edgeStyle=orthogonalEdgeStyle;rounded=0;orthogonalLoop=1;jettySize=auto;html=1;entryX=0;entryY=0.5;entryDx=0;entryDy=0;" parent="1" source="kI2SttpEml83V6R4ilh7-1" target="kI2SttpEml83V6R4ilh7-6" edge="1">
          <mxGeometry relative="1" as="geometry" />
        </mxCell>
        <mxCell id="kI2SttpEml83V6R4ilh7-27" style="edgeStyle=orthogonalEdgeStyle;rounded=0;orthogonalLoop=1;jettySize=auto;html=1;entryX=0;entryY=0.5;entryDx=0;entryDy=0;" parent="1" source="kI2SttpEml83V6R4ilh7-1" target="kI2SttpEml83V6R4ilh7-25" edge="1">
          <mxGeometry relative="1" as="geometry" />
        </mxCell>
        <mxCell id="kI2SttpEml83V6R4ilh7-1" value="企业战略管理的概念与流派" style="rounded=0;whiteSpace=wrap;html=1;" parent="1" vertex="1">
          <mxGeometry x="40" y="390" width="120" height="60" as="geometry" />
        </mxCell>
        <mxCell id="U5Mvfm9Wlk4tL-Lyn8Mg-5" value="" style="edgeStyle=orthogonalEdgeStyle;rounded=0;orthogonalLoop=1;jettySize=auto;html=1;" parent="1" source="kI2SttpEml83V6R4ilh7-2" target="U5Mvfm9Wlk4tL-Lyn8Mg-4" edge="1">
          <mxGeometry relative="1" as="geometry" />
        </mxCell>
        <mxCell id="U5Mvfm9Wlk4tL-Lyn8Mg-8" style="edgeStyle=orthogonalEdgeStyle;rounded=0;orthogonalLoop=1;jettySize=auto;html=1;entryX=0;entryY=0.5;entryDx=0;entryDy=0;" parent="1" source="kI2SttpEml83V6R4ilh7-2" target="U5Mvfm9Wlk4tL-Lyn8Mg-7" edge="1">
          <mxGeometry relative="1" as="geometry" />
        </mxCell>
        <mxCell id="kI2SttpEml83V6R4ilh7-2" value="1.企业战略管理的内涵" style="rounded=0;whiteSpace=wrap;html=1;" parent="1" vertex="1">
          <mxGeometry x="240" y="120" width="120" height="60" as="geometry" />
        </mxCell>
        <mxCell id="kI2SttpEml83V6R4ilh7-6" value="2.企业战略管理理论流派" style="rounded=0;whiteSpace=wrap;html=1;" parent="1" vertex="1">
          <mxGeometry x="240" y="390" width="120" height="60" as="geometry" />
        </mxCell>
        <mxCell id="kI2SttpEml83V6R4ilh7-17" style="edgeStyle=orthogonalEdgeStyle;rounded=0;orthogonalLoop=1;jettySize=auto;html=1;entryX=0;entryY=0.5;entryDx=0;entryDy=0;exitX=1;exitY=0.5;exitDx=0;exitDy=0;" parent="1" source="kI2SttpEml83V6R4ilh7-6" target="kI2SttpEml83V6R4ilh7-12" edge="1">
          <mxGeometry relative="1" as="geometry">
            <mxPoint x="610" y="340" as="targetPoint" />
            <mxPoint x="360" y="360" as="sourcePoint" />
          </mxGeometry>
        </mxCell>
        <mxCell id="kI2SttpEml83V6R4ilh7-18" style="edgeStyle=orthogonalEdgeStyle;rounded=0;orthogonalLoop=1;jettySize=auto;html=1;entryX=0;entryY=0.5;entryDx=0;entryDy=0;exitX=1;exitY=0.5;exitDx=0;exitDy=0;" parent="1" source="kI2SttpEml83V6R4ilh7-6" target="kI2SttpEml83V6R4ilh7-11" edge="1">
          <mxGeometry relative="1" as="geometry">
            <mxPoint x="360" y="450" as="sourcePoint" />
          </mxGeometry>
        </mxCell>
        <mxCell id="kI2SttpEml83V6R4ilh7-19" style="edgeStyle=orthogonalEdgeStyle;rounded=0;orthogonalLoop=1;jettySize=auto;html=1;entryX=0;entryY=0.5;entryDx=0;entryDy=0;exitX=1;exitY=0.5;exitDx=0;exitDy=0;" parent="1" source="kI2SttpEml83V6R4ilh7-6" target="kI2SttpEml83V6R4ilh7-10" edge="1">
          <mxGeometry relative="1" as="geometry">
            <mxPoint x="360" y="360" as="sourcePoint" />
          </mxGeometry>
        </mxCell>
        <mxCell id="kI2SttpEml83V6R4ilh7-20" style="edgeStyle=orthogonalEdgeStyle;rounded=0;orthogonalLoop=1;jettySize=auto;html=1;entryX=0;entryY=0.5;entryDx=0;entryDy=0;exitX=1;exitY=0.5;exitDx=0;exitDy=0;" parent="1" source="kI2SttpEml83V6R4ilh7-6" target="kI2SttpEml83V6R4ilh7-13" edge="1">
          <mxGeometry relative="1" as="geometry">
            <mxPoint x="360" y="360" as="sourcePoint" />
          </mxGeometry>
        </mxCell>
        <mxCell id="kI2SttpEml83V6R4ilh7-22" value="" style="edgeStyle=orthogonalEdgeStyle;rounded=0;orthogonalLoop=1;jettySize=auto;html=1;entryX=0;entryY=0.5;entryDx=0;entryDy=0;" parent="1" source="kI2SttpEml83V6R4ilh7-10" target="kI2SttpEml83V6R4ilh7-21" edge="1">
          <mxGeometry relative="1" as="geometry" />
        </mxCell>
        <mxCell id="kI2SttpEml83V6R4ilh7-24" style="edgeStyle=orthogonalEdgeStyle;rounded=0;orthogonalLoop=1;jettySize=auto;html=1;entryX=0;entryY=0.5;entryDx=0;entryDy=0;" parent="1" source="kI2SttpEml83V6R4ilh7-10" target="kI2SttpEml83V6R4ilh7-23" edge="1">
          <mxGeometry relative="1" as="geometry" />
        </mxCell>
        <mxCell id="kI2SttpEml83V6R4ilh7-10" value="3.企业战略管理主要流派" style="rounded=0;whiteSpace=wrap;html=1;" parent="1" vertex="1">
          <mxGeometry x="440" y="440" width="120" height="60" as="geometry" />
        </mxCell>
        <mxCell id="kI2SttpEml83V6R4ilh7-11" value="2.企业战略管理理论的演进过程" style="rounded=0;whiteSpace=wrap;html=1;" parent="1" vertex="1">
          <mxGeometry x="440" y="320" width="120" height="60" as="geometry" />
        </mxCell>
        <mxCell id="kI2SttpEml83V6R4ilh7-12" value="1.企业战略管理产生的历史背景" style="rounded=0;whiteSpace=wrap;html=1;" parent="1" vertex="1">
          <mxGeometry x="440" y="240" width="120" height="60" as="geometry" />
        </mxCell>
        <mxCell id="kI2SttpEml83V6R4ilh7-13" value="4.企业战略管理理论的发展趋势" style="rounded=0;whiteSpace=wrap;html=1;" parent="1" vertex="1">
          <mxGeometry x="440" y="560" width="120" height="60" as="geometry" />
        </mxCell>
        <mxCell id="kI2SttpEml83V6R4ilh7-21" value="战略管理【过程角度】下的战略管理学派" style="rounded=0;whiteSpace=wrap;html=1;" parent="1" vertex="1">
          <mxGeometry x="640" y="400" width="120" height="60" as="geometry" />
        </mxCell>
        <mxCell id="kI2SttpEml83V6R4ilh7-23" value="战略管理【内容角度】下的战略管理学派" style="rounded=0;whiteSpace=wrap;html=1;" parent="1" vertex="1">
          <mxGeometry x="640" y="480" width="120" height="60" as="geometry" />
        </mxCell>
        <mxCell id="kI2SttpEml83V6R4ilh7-25" value="3.战略管理的过程" style="rounded=0;whiteSpace=wrap;html=1;" parent="1" vertex="1">
          <mxGeometry x="240" y="640" width="120" height="60" as="geometry" />
        </mxCell>
        <mxCell id="U5Mvfm9Wlk4tL-Lyn8Mg-4" value="&lt;div&gt;1.`企业战略`的定义&lt;/div&gt;&lt;div&gt;3.企业战略4个构成要素&lt;/div&gt;&lt;div&gt;4.企业战略的相关概念&lt;/div&gt;" style="rounded=0;whiteSpace=wrap;html=1;" parent="1" vertex="1">
          <mxGeometry x="440" y="80" width="160" height="60" as="geometry" />
        </mxCell>
        <mxCell id="U5Mvfm9Wlk4tL-Lyn8Mg-7" value="&lt;div&gt;2.企业`战略管理`的定义&lt;/div&gt;&lt;div&gt;5.企业战略管理的本质作用&lt;/div&gt;" style="rounded=0;whiteSpace=wrap;html=1;" parent="1" vertex="1">
          <mxGeometry x="440" y="160" width="160" height="60" as="geometry" />
        </mxCell>
      </root>
    </mxGraphModel>
  </diagram>
</mxfile>
